<?xml version="1.0" encoding="utf-8"?>
<!-- Generator: Adobe Illustrator 25.1.0, SVG Export Plug-In . SVG Version: 6.00 Build 0)  -->
<svg version="1.1" id="Layer_1" xmlns="http://www.w3.org/2000/svg" xmlns:xlink="http://www.w3.org/1999/xlink" x="0px" y="0px"
	 viewBox="0 0 843.3 331.57" style="enable-background:new 0 0 843.3 331.57;" xml:space="preserve">
<style type="text/css">
	.st0{fill:#FFFFFF;}
	.st1{fill:none;stroke:#FFFFFF;stroke-width:9.9777;stroke-miterlimit:10;}
	.st2{fill:none;stroke:#FFFFFF;stroke-width:3.2843;stroke-linejoin:round;stroke-miterlimit:10;}
	.st3{fill:#FFFFFF;stroke:#1F2734;stroke-width:4.9888;stroke-linejoin:round;stroke-miterlimit:10;}
	.st4{fill:#20B0A9;stroke:#1F2734;stroke-width:4.9888;stroke-linejoin:round;stroke-miterlimit:10;}
	.st5{fill:#20B0A9;}
	.st6{fill:none;stroke:#20B0A9;stroke-width:9.9777;stroke-miterlimit:10;}
	.st7{fill:#FFFFFF;stroke:#20B0A9;stroke-width:3.2843;stroke-linejoin:round;stroke-miterlimit:10;}
	.st8{clip-path:url(#SVGID_2_);}
	.st9{clip-path:url(#SVGID_4_);fill:#7AE9C5;}
	.st10{clip-path:url(#SVGID_6_);}
	.st11{clip-path:url(#SVGID_8_);fill:#20B0A9;}
	.st12{clip-path:url(#SVGID_11_);}
	.st13{clip-path:url(#SVGID_12_);}
	.st14{clip-path:url(#SVGID_14_);fill:#FFFFFF;}
	.st15{clip-path:url(#SVGID_16_);}
	.st16{clip-path:url(#SVGID_18_);fill:#1F2734;}
	.st17{clip-path:url(#SVGID_20_);}
	.st18{clip-path:url(#SVGID_22_);fill:#1F2734;}
	.st19{clip-path:url(#SVGID_24_);}
	.st20{clip-path:url(#SVGID_26_);fill:#1F2734;}
	.st21{fill:#FFFFFF;stroke:#1F2734;stroke-width:1.6738;stroke-miterlimit:10;}
	.st22{clip-path:url(#SVGID_28_);}
	.st23{clip-path:url(#SVGID_30_);enable-background:new    ;}
	.st24{clip-path:url(#SVGID_32_);}
	.st25{clip-path:url(#SVGID_34_);}
	.st26{clip-path:url(#SVGID_36_);fill:#FFFFFF;}
	.st27{clip-path:url(#SVGID_38_);fill:none;stroke:#1F2734;stroke-width:3.3476;stroke-miterlimit:10;}
	.st28{clip-path:url(#SVGID_40_);}
	.st29{clip-path:url(#SVGID_42_);enable-background:new    ;}
	.st30{clip-path:url(#SVGID_44_);}
	.st31{clip-path:url(#SVGID_46_);}
	.st32{clip-path:url(#SVGID_48_);fill:#FFFFFF;}
	.st33{clip-path:url(#SVGID_50_);fill:none;stroke:#1F2734;stroke-width:3.3476;stroke-miterlimit:10;}
	.st34{clip-path:url(#SVGID_52_);}
	.st35{clip-path:url(#SVGID_54_);fill:#1F2734;}
	.st36{clip-path:url(#SVGID_56_);}
	.st37{clip-path:url(#SVGID_58_);fill:#1F2734;}
</style>
<g>
	<g>
		<rect x="503.07" y="8.43" class="st0" width="28.54" height="24.89"/>
		<path class="st0" d="M340.12,7.47h29.29L322.9,143.74h-31.63L244.85,7.47h29.29c0,0,32.66,108.51,33.04,111
			C307.87,112.73,340.12,7.47,340.12,7.47z"/>
		<path class="st0" d="M479.48,91.24c0,17.03-4.49,30.36-13.48,39.96c-8.98,9.61-21.49,14.41-37.53,14.41
			c-10.05,0-18.91-2.2-26.58-6.6c-7.67-4.4-13.57-10.72-17.69-18.95c-4.12-8.24-6.18-17.84-6.18-28.83
			c0-17.09,4.46-30.38,13.38-39.87c8.93-9.48,21.47-14.23,37.63-14.23c10.05,0,18.9,2.19,26.58,6.55
			c7.67,4.37,13.57,10.64,17.69,18.81C477.43,70.68,479.48,80.26,479.48,91.24z M407.14,91.24c0,10.36,1.7,18.19,5.1,23.49
			c3.4,5.3,8.94,7.96,16.61,7.96c7.61,0,13.09-2.64,16.42-7.91c3.34-5.27,5.01-13.12,5.01-23.54c0-10.36-1.69-18.12-5.06-23.3
			c-3.37-5.18-8.89-7.77-16.56-7.77c-7.61,0-13.1,2.57-16.47,7.72C408.82,73.04,407.14,80.82,407.14,91.24z"/>
		<rect x="503.07" y="40.07" class="st0" width="28.54" height="104.63"/>
		<path class="st0" d="M604.05,145.62c-32.57,0-48.86-17.88-48.86-53.63c0-17.78,4.43-31.37,13.29-40.76
			c8.86-9.39,21.56-14.09,38.09-14.09c12.1,0,22.96,2.37,32.57,7.11l-8.42,22.09c-4.49-1.81-8.67-3.29-12.54-4.45
			c-3.87-1.15-7.74-1.73-11.6-1.73c-14.85,0-22.27,10.55-22.27,31.63c0,20.47,7.42,30.7,22.27,30.7c5.49,0,10.58-0.73,15.25-2.2
			c4.68-1.47,9.36-3.76,14.04-6.88v24.43c-4.62,2.93-9.28,4.96-13.99,6.08C617.17,145.05,611.23,145.62,604.05,145.62z"/>
		<path class="st0" d="M707.47,145.62c-16.85,0-30.01-4.65-39.5-13.95c-9.49-9.3-14.23-22.46-14.23-39.5
			c0-17.53,4.38-31.09,13.15-40.67c8.77-9.58,20.89-14.37,36.36-14.37c14.79,0,26.3,4.21,34.53,12.63
			c8.24,8.42,12.36,20.06,12.36,34.91v13.85h-67.48c0.31,8.11,2.71,14.45,7.21,19c4.49,4.56,10.79,6.83,18.9,6.83
			c6.3,0,12.26-0.66,17.88-1.97c5.62-1.31,11.48-3.4,17.6-6.27v22.09c-4.99,2.5-10.33,4.35-16,5.57
			C722.57,145.01,715.65,145.62,707.47,145.62z M703.45,57.45c-6.05,0-10.8,1.92-14.23,5.76s-5.4,9.28-5.9,16.33h40.06
			c-0.13-7.05-1.97-12.49-5.52-16.33C714.3,59.37,709.5,57.45,703.45,57.45z"/>
		<g>
			<path class="st1" d="M771.04,75.39l1.04,1.79c6.84,11.76,6.43,26.37-1.04,37.74v0"/>
			<path class="st1" d="M785.97,58.87L785.97,58.87c12.1,21.87,12.49,48.32,1.05,70.54l-1.05,2.03"/>
			<path class="st1" d="M804.33,49.77l1.02,2.07c13.84,28.04,13.46,61-1.02,88.71v0"/>
		</g>
	</g>
	<g>
		<path class="st0" d="M455.81,317.69c-16.85,0-30.01-4.65-39.5-13.95c-9.49-9.3-14.23-22.46-14.23-39.5
			c0-17.53,4.38-31.09,13.15-40.67c8.77-9.58,20.89-14.37,36.36-14.37c14.79,0,26.3,4.21,34.53,12.63
			c8.24,8.42,12.36,20.06,12.36,34.91v13.85H431c0.31,8.11,2.71,14.45,7.21,19c4.49,4.56,10.79,6.83,18.9,6.83
			c6.3,0,12.26-0.66,17.88-1.97c5.62-1.31,11.48-3.4,17.6-6.27v22.09c-4.99,2.5-10.33,4.35-16,5.57
			C470.9,317.09,463.98,317.69,455.81,317.69z M451.78,229.53c-6.05,0-10.8,1.92-14.23,5.76c-3.43,3.84-5.4,9.28-5.9,16.33h40.06
			c-0.13-7.05-1.97-12.49-5.52-16.33C462.64,231.45,457.83,229.53,451.78,229.53z"/>
		<path class="st0" d="M384.5,248.89c0,21.74-6.04,38.36-18.11,49.87c-12.07,11.5-29.46,17.25-52.16,17.25h-36.85V184.3h40.72
			c20.96,0,37.27,5.65,48.92,16.94C378.68,212.53,384.5,228.41,384.5,248.89z M361.8,249.61c0-31.53-14.75-47.3-44.24-47.3h-18.65
			v95.59h15.32C345.94,297.9,361.8,281.81,361.8,249.61z"/>
		<path class="st0" d="M632.92,223.24v-32.21h22.94v32.21h25.38v16.96h-25.38l-0.07,35.04c0,27.54,0.07,22.65,22.6,22.65h2.85v18.11
			h-21.05h-4.67c-12.48,0-22.6-13.09-22.6-22.6v-53.2h-17.81v-17.45L632.92,223.24z"/>
		<path class="st0" d="M800.65,182.25h22.94l-0.07,93c0,8.84-1.23,22.65,9.74,22.65h2.85v18.11h-8.19h-4.67
			c-12.48,0-22.6-13.09-22.6-22.6V182.25z"/>
		<path class="st0" d="M760.11,315.45l-4.09-13.4h-0.7c-4.64,5.86-9.31,9.85-14.01,11.97c-4.7,2.12-10.73,3.18-18.1,3.18
			c-9.46,0-16.84-2.55-22.15-7.66c-5.31-5.1-7.96-12.33-7.96-21.67c0-9.92,3.68-17.4,11.05-22.45c7.37-5.05,18.59-7.8,33.68-8.27
			l16.62-0.52v-5.13c0-6.15-1.43-10.75-4.31-13.79c-2.87-3.05-7.32-4.57-13.36-4.57c-4.93,0-9.66,0.73-14.18,2.18
			c-4.53,1.45-8.88,3.16-13.05,5.13l-6.62-14.62c5.22-2.73,10.93-4.8,17.14-6.22c6.21-1.42,12.07-2.13,17.58-2.13
			c12.24,0,21.48,2.67,27.72,8.01c6.24,5.34,9.35,13.72,9.35,25.15v64.83H760.11z M729.66,301.53c7.42,0,13.38-2.07,17.88-6.22
			c4.5-4.15,6.75-9.96,6.75-17.45v-8.35l-12.36,0.52c-9.63,0.35-16.63,1.96-21.01,4.83c-4.38,2.87-6.57,7.27-6.57,13.18
			c0,4.29,1.28,7.61,3.83,9.96C720.72,300.35,724.55,301.53,729.66,301.53z"/>
		<path class="st2" d="M606.19,234.66c-1.97-13.06-12.57-23.6-25.64-25.48c-9.12-1.31-17.61,1.41-23.95,6.65
			c-6.11-5.05-14.22-7.76-22.96-6.78c-12.22,1.38-22.54,10.36-25.85,22.2c-1.43,5.12-0.41,15.45-0.05,16.04
			c0.39,1.44,0.88,2.84,1.46,4.19c1.68,3.88,3.31,7.78,4.39,11.87c4.16,15.82,7.27,36.9,8.5,45.97c0.52,3.82,3.18,7.08,7.04,8.31
			c3.25,1.03,6.8,0.15,9.5-1.94c2.26-1.74,3.96-5.67,3.96-8.52l0-23.91c0-7.32,3.88-17.26,12.15-18.44
			c9.86-1.4,12.17,11.09,12.59,18.44l0,23.88c0,3.27,1.33,6.48,3.9,8.5c2.7,2.12,6.29,3.02,9.56,1.99c3.86-1.22,6.52-4.48,7.04-8.31
			c0.79-5.83,2.36-16.63,4.48-27.8c1.85-9.74,5.74-18.88,10.5-27.57C605.89,248.37,607.25,241.7,606.19,234.66z"/>
	</g>
	<g>
		<g>
			<path class="st3" d="M201.17,274H6.61V26.32c0-10.29,8.34-18.63,18.63-18.63h157.31c10.29,0,18.63,8.34,18.63,18.63V274z"/>
			<path class="st4" d="M201.17,274H6.61v28.22c0,10.29,8.34,18.63,18.63,18.63h157.31c10.29,0,18.63-8.34,18.63-18.63V274z"/>
		</g>
		<path class="st3" d="M180.49,115.74c-2.99-19.83-19.09-35.85-38.95-38.7c-13.85-1.99-26.75,2.15-36.38,10.1
			c-9.28-7.67-21.6-11.79-34.88-10.29c-18.56,2.09-34.24,15.73-39.27,33.72c-2.17,7.77-0.62,23.47-0.08,24.37
			c0.59,2.19,1.33,4.31,2.22,6.36c2.55,5.9,5.03,11.82,6.67,18.03c6.32,24.03,11.04,56.04,12.92,69.83
			c0.79,5.8,4.83,10.76,10.69,12.62c4.93,1.56,10.32,0.22,14.43-2.95c3.43-2.65,6.02-8.62,6.02-12.95l0-36.31
			c0-11.12,5.89-26.22,18.46-28.01c14.97-2.13,18.48,16.85,19.13,28.01l0,36.28c0,4.96,2.03,9.85,5.93,12.91
			c4.1,3.22,9.55,4.59,14.52,3.02c5.87-1.85,9.91-6.81,10.69-12.62c1.2-8.86,3.58-25.25,6.8-42.22
			c2.81-14.79,8.72-28.67,15.95-41.87C180.03,136.56,182.11,126.44,180.49,115.74z"/>
		<path class="st4" d="M119.12,37.36h-24.6c-16.39,0-29.67-13.28-29.67-29.67v0h83.94v0C148.79,24.08,135.51,37.36,119.12,37.36z"/>
	</g>
</g>
</svg>
