<?xml version="1.0" encoding="utf-8"?>
<!-- Generator: Adobe Illustrator 25.1.0, SVG Export Plug-In . SVG Version: 6.00 Build 0)  -->
<svg version="1.1" id="Layer_1" xmlns="http://www.w3.org/2000/svg" xmlns:xlink="http://www.w3.org/1999/xlink" x="0px" y="0px"
	 viewBox="0 0 78.58 81.31" style="enable-background:new 0 0 78.58 81.31;" xml:space="preserve">
<style type="text/css">
	.st0{fill-rule:evenodd;clip-rule:evenodd;fill:#FFFFFF;}
	.st1{fill:#20B0A9;}
	.st2{fill:#FFFFFF;}
	.st3{fill-rule:evenodd;clip-rule:evenodd;fill:#1F2734;}
</style>
<g>
	<path class="st1" d="M39.29,6.72c-18.75,0-33.93,15.19-33.93,33.93c0,18.75,15.19,33.93,33.93,33.93
		c18.75,0,33.93-15.19,33.93-33.93C73.24,21.91,58.04,6.72,39.29,6.72L39.29,6.72z M39.29,68.92"/>
	<path class="st2" d="M50.48,39.32L36.39,29.09c-0.52-0.38-1.2-0.44-1.76-0.14c-0.57,0.29-0.93,0.87-0.93,1.51v20.48
		c0,0.64,0.35,1.22,0.93,1.52c0.24,0.12,0.51,0.17,0.77,0.17c0.34,0,0.69-0.11,0.99-0.33l14.09-10.23c0.45-0.33,0.71-0.83,0.71-1.37
		C51.19,40.15,50.93,39.65,50.48,39.32L50.48,39.32z M50.48,39.32"/>
</g>
</svg>
